# xmcd CD database file
#
# Track frame offsets:
#	150
#	34875
#	58073
#	87525
#	129663
#	163083
#	197955
#	236053
#	283088
#
# Disc length: 4253 seconds
#
# Revision: 0
# Processed by: cddbd v1.5.2PL0 Copyright (c) Steve Scherf et al.
# Submitted via: CDex 1.70beta2
#
DISCID=8a109b09
DTITLE=Joe Morris - Sweatshop
DYEAR=1990
DGENRE=Jazz
TTITLE0=Four Pests
TTITLE1=The Oky Doke
TTITLE2=Fit Fit
TTITLE3=Teeming Millions
TTITLE4=World Iz Big
TTITLE5=What's What
TTITLE6=Well Put
TTITLE7=Are You Warm Now?
TTITLE8=Slow Learner
EXTD=YEAR: 1990
EXTT0=
EXTT1=
EXTT2=
EXTT3=
EXTT4=
EXTT5=
EXTT6=
EXTT7=
EXTT8=
PLAYORDER=
